<svg width="117" height="37" viewBox="0 0 117 37" fill="none" xmlns="http://www.w3.org/2000/svg">
<path d="M25.5093 0.263121C26.3396 0.263121 27.1739 0.263121 28.0077 0.257324C27.9984 3.2598 28.0376 6.26287 27.9892 9.26535C27.9679 11.2032 27.1555 13.2686 25.3907 14.23C23.3961 15.2523 20.8672 15.2465 18.9118 14.1355C17.2472 13.155 16.4381 11.1389 16.4831 9.25897C16.4923 6.25935 16.4859 3.2598 16.4894 0.260226H18.9141C18.9204 2.85703 18.9083 5.45092 18.917 8.04772C18.9596 9.24097 18.9625 10.5397 19.6753 11.5567C20.6335 12.8844 22.6435 13.0096 23.9938 12.262C25.2156 11.5202 25.4764 9.9735 25.5007 8.65222C25.5214 5.8566 25.503 3.05871 25.5093 0.263121ZM36.3331 0.318179C38.4336 -0.310021 40.7777 0.0713009 42.6485 1.1973C42.637 2.07585 42.637 2.9515 42.637 3.82772C41.0668 2.64957 38.9777 1.78319 37.0281 2.46934C36.1851 2.72317 35.6336 3.74427 36.0395 4.56603C36.3728 5.35297 37.2797 5.58195 37.9972 5.87512C39.5432 6.49462 41.3259 6.82732 42.4723 8.14222C43.9457 9.93352 43.5726 13.1226 41.4139 14.212C38.9852 15.4783 35.9502 15.0755 33.6217 13.7572C33.6188 12.8536 33.6188 11.9537 33.6096 11.0502C35.3623 12.4086 37.7939 13.2141 39.9405 12.3871C41.1111 11.9601 41.2596 10.127 40.1984 9.49425C38.5516 8.49052 36.5295 8.28592 34.9501 7.1478C33.5618 6.14287 33.1524 4.15109 33.7288 2.58235C34.1589 1.44418 35.1994 0.653714 36.3331 0.318179ZM58.8744 0.0434836C62.1789 3.09521 65.393 6.25065 68.6371 9.36907V0.260226H71.0625V14.9932C67.7544 11.8314 64.5379 8.57572 61.2116 5.43127V14.6716C60.4268 14.6774 59.6443 14.6774 58.8623 14.6803C58.8663 9.8025 58.8422 4.9259 58.8744 0.0434836ZM77.4337 0.257324C80.3598 0.257324 83.2821 0.272391 86.2052 0.248054C86.2232 0.989834 86.2232 1.73104 86.2232 2.47282C84.1256 2.47282 82.0303 2.46934 79.932 2.47282V5.8995C81.803 5.90587 83.6702 5.8995 85.5412 5.90587V8.115C83.6702 8.1177 81.8008 8.1177 79.932 8.115C79.932 9.56377 79.932 11.0172 79.938 12.4666C82.0303 12.4573 84.1256 12.4666 86.2142 12.4602C86.2172 13.2234 86.2202 13.9889 86.2202 14.7522H77.4277C77.4337 9.9213 77.4247 5.09107 77.4337 0.257324ZM93.3302 0.824676C95.6042 -0.499517 98.5086 -0.0938563 100.74 1.12718C100.783 2.02427 100.783 2.92368 100.78 3.82135C99.1607 2.60089 96.9794 1.72813 94.9917 2.52787C93.8641 2.93353 93.7332 4.64542 94.7584 5.23711C96.4282 6.20145 98.4689 6.39615 100.03 7.5807C102.129 9.15517 101.974 12.9667 99.5757 14.1871C97.1469 15.469 94.0824 15.0906 91.759 13.7357C91.759 12.8444 91.759 11.9537 91.7441 11.0624C93.4363 12.2794 95.5892 13.1069 97.6748 12.5395C98.445 12.3442 99.1517 11.6482 99.0418 10.7941C99.0575 10.141 98.6028 9.56722 98.033 9.29895C96.3953 8.44417 94.4631 8.20305 92.9787 7.04692C91.0404 5.53612 91.1683 2.07295 93.3302 0.824676ZM107.884 0.873928C110.139 -0.499517 113.092 -0.130366 115.32 1.1237C115.329 2.0121 115.329 2.89702 115.336 3.78484C113.732 2.56438 111.543 1.73741 109.581 2.54293C108.487 2.97004 108.362 4.63325 109.363 5.23711C111.073 6.2385 113.201 6.39615 114.766 7.67572C116.112 8.74372 116.381 10.7239 115.86 12.2863C115.372 13.6771 113.98 14.4885 112.613 14.7852C110.514 15.2215 108.274 14.8309 106.41 13.7757C106.379 12.8693 106.379 11.9629 106.376 11.0566C108.14 12.375 110.545 13.2199 112.688 12.3895C113.855 11.9623 114.035 10.1618 112.983 9.50872C111.291 8.44357 109.156 8.2917 107.57 7.0278C105.701 5.5182 105.788 2.14423 107.884 0.873928ZM0.949219 0.260226C3.4914 0.409739 6.13139 -0.115884 8.59123 0.690801C11.3228 1.57225 11.7109 5.87227 9.21885 7.26945C11.4897 8.2158 12.0109 11.4565 10.4528 13.2506C9.49464 14.398 7.93019 14.7029 6.51433 14.7458C4.65847 14.7765 2.8062 14.7458 0.95037 14.755V0.260226H0.949219ZM3.37908 2.47571C3.37601 3.74524 3.37601 5.01457 3.37908 6.28372C4.6827 6.21997 6.03522 6.4668 7.30833 6.09765C8.84571 5.64915 8.85782 3.10101 7.32964 2.6374C6.04098 2.30765 4.6919 2.53366 3.37908 2.47571ZM3.37908 8.42325C3.37332 9.79612 3.37624 11.1696 3.37908 12.5378C4.87615 12.4312 6.48382 12.834 7.89968 12.2023C9.30343 11.5126 9.17623 9.16275 7.70563 8.63482C6.31101 8.19727 4.81625 8.51887 3.37908 8.42325ZM49.5373 0.260226H51.9649V14.755H49.5373V0.260226ZM39.5985 22.7651C41.8631 21.3215 44.8832 21.722 47.1207 23.0248C47.1086 23.8975 47.1086 24.7702 47.1115 25.6424C45.4744 24.4376 43.2248 23.5069 41.2538 24.4312C40.2808 24.8983 40.1536 26.3535 41.0293 26.9851C42.8247 28.1326 45.2108 28.1876 46.7597 29.7564C47.7961 30.7416 47.9688 32.3132 47.7028 33.6559C47.3936 34.9987 46.2293 35.9995 44.9465 36.3796C42.7008 37.0751 40.1806 36.7001 38.1613 35.5191C38.1676 34.6249 38.1705 33.7313 38.1613 32.8371C39.8685 34.1277 42.1878 34.9761 44.2861 34.2193C45.5528 33.8773 45.805 31.9186 44.6586 31.2776C42.964 30.2125 40.8082 30.0786 39.2496 28.7602C37.4824 27.2569 37.5975 24.0221 39.5985 22.7651ZM10.5771 22.1549H12.9995C13.0053 26.9335 13.0062 31.7142 13.0024 36.4967H10.5771V22.1549ZM19.897 21.8194C23.1231 24.9192 26.3418 28.0318 29.5963 31.102C29.6084 28.0932 29.5991 25.0873 29.602 22.0819C30.4082 22.0784 31.2167 22.0772 32.0279 22.0784C32.0336 26.9701 32.0215 31.8583 32.0336 36.75C28.7441 33.6119 25.5185 30.4031 22.2537 27.2372C22.2382 30.3226 22.2537 33.4102 22.2474 36.4984H19.8976C19.8945 31.6039 19.8943 26.7109 19.897 21.8194ZM54.0089 22.1549H56.4348V36.4967H54.0089V22.1549ZM63.4112 22.1549C65.3639 22.1549 67.3185 22.1527 69.275 22.1485C71.497 22.1212 73.792 23.2658 74.8785 25.2646C76.045 27.3636 76.1206 29.9725 75.3967 32.2338C74.6205 34.6099 72.3098 36.2905 69.8481 36.451C67.7043 36.5611 65.5577 36.4666 63.4112 36.4967V22.1549ZM65.9095 24.3669V34.2812C67.6467 34.2175 69.5175 34.5502 71.1328 33.7324C72.6875 32.9263 73.3986 31.0957 73.353 29.411C73.4158 27.7084 72.8191 25.7983 71.2607 24.9256C69.6263 24.007 67.6893 24.4834 65.9095 24.3669ZM80.8413 22.1549C83.7458 22.1522 86.6517 22.1522 89.5583 22.1549C89.5583 22.8932 89.5553 23.6315 89.5553 24.3703C87.4578 24.3642 85.3617 24.3642 83.2672 24.3703V27.7206C85.1351 27.724 87.0046 27.7252 88.8763 27.724V29.8601C87.0054 29.8601 85.1337 29.8567 83.2672 29.8601V34.2784C85.3625 34.2847 87.4608 34.2784 89.5583 34.2818V36.4939H80.8413V22.1549ZM96.6862 22.152C98.6536 22.17 100.622 22.1335 102.587 22.1641C104.257 22.2064 106.022 23.1742 106.502 24.8705C106.932 26.3448 106.83 28.0932 105.889 29.353C105.313 30.1064 104.379 30.391 103.507 30.632C105.21 32.5692 106.901 34.5202 108.579 36.4852C107.62 36.5037 106.663 36.5037 105.711 36.4852C104.086 34.5415 102.429 32.625 100.796 30.6934C100.256 30.697 99.72 30.697 99.1838 30.697C99.1779 32.6284 99.1808 34.56 99.1808 36.4921C98.3471 36.4948 97.5133 36.4948 96.6795 36.4921V22.1473L96.6862 22.152ZM99.1808 24.2916C99.1749 25.7137 99.1779 27.1358 99.1808 28.5574C100.476 28.4844 101.829 28.762 103.083 28.3563C104.632 27.7304 104.666 25.2269 103.14 24.5599C101.886 24.0772 100.501 24.3611 99.1876 24.2939" fill="#B7BAC1"/>
</svg>
