<svg width="123" height="31" viewBox="0 0 123 31" fill="none" xmlns="http://www.w3.org/2000/svg">
<path d="M75.0563 8.64857C73.0866 8.64857 71.5394 9.06759 69.9914 9.9038C69.9914 5.43975 69.9914 1.39454 70.1328 0L60.7043 1.67333V2.51037L61.6891 2.64976C62.9544 2.92856 63.3786 3.62537 63.6573 5.30035C63.9408 8.64857 63.7986 26.5058 63.6573 29.4359C66.1901 29.9942 68.8643 30.4131 71.5386 30.4131C78.9966 30.4131 83.4988 25.8089 83.4988 18.554C83.4988 12.8347 79.8408 8.64857 75.0563 8.64857ZM71.8197 28.8776C71.2566 28.8776 70.5521 28.8776 70.1311 28.739C69.9898 26.7861 69.85 18.554 69.9898 11.3C70.8341 11.0205 71.3964 10.8811 72.1009 10.8811C75.1985 10.8811 76.8871 14.5081 76.8871 18.9714C76.8862 24.5537 74.7751 28.8776 71.8197 28.8776ZM25.2427 0.557512H0.476562V1.81273L1.88397 1.95204C3.71231 2.23084 4.41683 3.34666 4.69717 5.99725C5.12053 11.0196 4.97914 20.0888 4.69717 24.4119C4.41601 27.0633 3.71312 28.3192 1.88397 28.4571L0.476562 28.7374V29.8533H16.3774V28.7374L14.6888 28.4571C12.8597 28.3185 12.1559 27.0633 11.8748 24.4119C11.7334 22.5976 11.5928 19.6675 11.5928 16.0413L14.97 16.1806C17.0811 16.1806 18.0651 17.8547 18.4876 20.2258H19.7545V10.3236H18.4876C18.0644 12.6953 17.0811 14.3687 14.97 14.3687L11.5936 14.5089C11.5936 9.76523 11.7342 5.30117 11.8756 2.65059H16.7999C20.6004 2.65059 22.5701 5.02156 23.9767 9.20772L25.3841 8.78879L25.2427 0.557512Z" fill="#B7BAC1"/>
<path d="M33.2588 8.37009C40.2951 8.37009 43.8128 13.1137 43.8128 19.3913C43.8128 25.3902 39.8725 30.4142 32.8363 30.4142C25.8009 30.4142 22.2832 25.6697 22.2832 19.3913C22.2832 13.3925 26.2226 8.37009 33.2588 8.37009ZM32.8363 9.76545C29.7403 9.76545 28.896 13.9508 28.896 19.3913C28.896 24.6924 30.3034 29.0172 33.1183 29.0172C36.3524 29.0172 37.1983 24.8318 37.1983 19.3913C37.1983 14.0901 35.7925 9.76545 32.8363 9.76545ZM85.3225 19.5315C85.3225 13.8114 88.9806 8.37009 96.1579 8.37009C102.066 8.37009 104.882 12.6956 104.882 18.4148H91.7951C91.6537 23.5766 94.1861 27.3439 99.2528 27.3439C101.504 27.3439 102.63 26.7871 104.038 25.8099L104.6 26.5067C103.192 28.4597 100.097 30.4142 96.1579 30.4142C89.825 30.4134 85.3225 25.9492 85.3225 19.5315ZM91.7951 16.8809L98.4083 16.7407C98.4083 13.9508 97.9857 9.76545 95.5946 9.76545C93.2028 9.76545 91.9349 13.6712 91.7951 16.8809ZM121.629 9.48666C119.94 8.7882 117.69 8.37009 115.156 8.37009C109.951 8.37009 106.713 11.4388 106.713 15.0666C106.713 18.6944 109.103 20.2284 112.484 21.345C116.001 22.5994 116.987 23.5766 116.987 25.2508C116.987 26.9249 115.72 28.4589 113.468 28.4589C110.795 28.4589 108.824 26.9249 107.277 22.7388L106.291 23.0191L106.433 29.1573C108.121 29.8542 111.216 30.4134 113.891 30.4134C119.379 30.4134 122.898 27.6217 122.898 23.2979C122.898 20.3677 121.349 18.6944 117.691 17.2982C113.75 15.7643 112.344 14.7878 112.344 12.9735C112.344 11.16 113.612 9.90402 115.3 9.90402C117.832 9.90402 119.52 11.4388 120.789 15.2059L121.773 14.9272L121.629 9.48666ZM62.105 8.92833C59.7136 7.53461 55.4914 8.23069 53.2405 13.2539L53.3803 8.37083L43.9534 10.1844V11.0214L44.9382 11.1608C46.2059 11.301 46.7674 11.9978 46.9087 13.8122C47.1899 17.1604 47.0493 23.0208 46.9087 25.9501C46.7674 27.6226 46.2059 28.4597 44.9382 28.5998L43.9534 28.74V29.8559H57.0393V28.74L55.3508 28.5998C53.9442 28.4597 53.5216 27.6226 53.3803 25.9501C53.0991 23.2987 53.0991 17.9976 53.2405 14.6493C53.9434 13.672 57.0393 12.8358 59.8533 14.6493L62.105 8.92833Z" fill="#B7BAC1"/>
</svg>
