<svg width="145" height="44" viewBox="0 0 145 44" fill="none" xmlns="http://www.w3.org/2000/svg">
<path d="M0 30.9395V0.640381H5.32231V30.9392L0 30.9395ZM18.9463 8.9586C12.1224 8.9586 7.40011 14.2054 7.40011 20.2108C7.40011 26.9134 12.5374 31.5304 18.9993 31.5304C25.132 31.5304 30.4537 26.9981 30.4537 20.1964C30.4537 14.4767 26.044 8.9586 18.9462 8.9586H18.9463ZM18.8836 14.093C22.4548 14.093 25.0832 16.8728 25.0832 20.2301C25.0832 23.7898 22.1852 26.3865 18.9799 26.3865C15.1927 26.3865 12.8092 23.3847 12.8092 20.2397C12.8092 16.7925 15.5002 14.093 18.8836 14.093ZM43.8261 8.9586C37.0021 8.9586 32.28 14.2054 32.28 20.2108C32.28 26.9134 37.4172 31.5304 43.8791 31.5304C50.0119 31.5304 55.3336 26.9981 55.3336 20.1964C55.3336 16.191 53.5991 14.4136 53.5991 14.4136L55.0743 13.9078V9.58818H47.5151C47.5151 9.58818 45.8763 8.9586 43.8261 8.9586ZM43.7635 14.093C47.3346 14.093 49.9631 16.8728 49.9631 20.2301C49.9631 23.7898 47.0651 26.3865 43.8598 26.3865C40.0726 26.3865 37.689 23.3847 37.689 20.2397C37.689 16.7925 40.3801 14.093 43.7635 14.093ZM49.9255 32.4203C49.9255 35.98 47.0274 38.5959 43.8222 38.5959C40.0349 38.5959 37.6418 35.5653 37.6418 32.4203H32.2423C32.2423 39.1228 37.3796 43.74 43.8415 43.74C49.9742 43.74 55.296 39.2222 55.296 32.4203H49.9255ZM57.4654 30.9395V9.58818H62.7877V30.9393L57.4654 30.9395ZM67.9558 30.9395V14.3707H65.1017V9.58818H67.9558V3.03176H73.2779V9.58818H76.2092V14.3707H73.2781V30.9393L67.9558 30.9395Z" fill="#B7BAC1"/>
<path d="M60.1161 7.04875C62.0626 7.04875 63.6405 5.47084 63.6405 3.52438C63.6405 1.57792 62.0626 0 60.1161 0C58.1697 0 56.5918 1.57792 56.5918 3.52438C56.5918 5.47084 58.1697 7.04875 60.1161 7.04875Z" fill="#B7BAC1"/>
<path d="M88.1746 8.94407C81.3183 8.94407 76.8984 14.1936 76.8984 20.4035C76.8984 26.8209 81.333 31.5448 88.2856 31.5448C94.7708 31.5448 97.9611 27.4952 97.9611 27.4952L94.4032 23.9325C94.4032 23.9325 91.7168 26.8299 88.3529 26.8299C85.5488 26.8299 83.3067 25.2648 82.5245 22.3947H99.1083V20.929C99.1083 15.0812 95.7237 8.94407 88.1745 8.94407H88.1746ZM88.0059 13.6302C90.4575 13.6302 92.965 14.9417 93.5257 18.075H82.3798C82.8212 15.8726 84.7481 13.6301 88.0057 13.6301L88.0059 13.6302ZM112.421 31.5476C105.546 31.5476 100.861 26.3108 100.861 20.1363C100.861 13.7643 106.155 8.94002 112.399 8.94002C118.435 8.94002 121.524 13.2011 121.524 13.2011L117.812 16.8969C117.812 16.8969 115.661 14.1183 112.374 14.1183C108.73 14.1183 106.239 16.9052 106.239 20.2181C106.239 23.716 108.889 26.3999 112.333 26.3999C115.673 26.3999 117.806 23.6254 117.806 23.6254L121.556 27.3195C121.556 27.3195 118.497 31.5476 112.421 31.5476ZM123.493 30.9546V0.563232H128.815V11.7292C128.815 11.7292 130.853 8.94002 135.286 8.94002C140.859 8.94002 144.088 13.083 144.088 18.3815V30.9546H138.765V19.1859C138.765 15.6262 136.549 14.1493 134.094 14.1493C131.297 14.1493 128.815 15.7413 128.815 19.4614V30.9546H123.493Z" fill="#B7BAC1"/>
</svg>
