<svg width="133" height="27" viewBox="0 0 133 27" fill="none" xmlns="http://www.w3.org/2000/svg">
<path d="M4.35503 17.6614C4.35503 19.2009 4.69294 20.3829 5.13461 21.098C5.71369 22.0346 6.57741 22.4314 7.45795 22.4314C8.59368 22.4314 9.63266 22.1496 11.6349 19.3804C13.2389 17.1608 15.129 14.0452 16.4008 12.0921L18.5544 8.78301C20.0505 6.4849 21.7821 3.9302 23.7676 2.19856C25.3884 0.785199 27.1369 0 28.8966 0C31.8509 0 34.665 1.71201 36.8186 4.92292C39.1756 8.43949 40.3198 12.8688 40.3198 17.4398C40.3198 20.1572 39.7841 22.1538 38.8728 23.7312C37.9922 25.2568 36.276 26.7809 33.389 26.7809V22.4314C35.861 22.4314 36.4779 20.16 36.4779 17.5604C36.4779 13.856 35.6142 9.74488 33.7115 6.80739C32.3612 4.72381 30.6114 3.45067 28.6863 3.45067C26.6041 3.45067 24.9285 5.02107 23.0455 7.82114C22.0443 9.30881 21.0166 11.1218 19.8626 13.1675L18.5923 15.4179C16.0404 19.9426 15.394 20.9732 14.1181 22.674C11.8817 25.6522 9.97197 26.7809 7.45795 26.7809C4.47561 26.7809 2.58974 25.4895 1.42176 23.5433C0.468313 21.9575 0 19.8767 0 17.5057L4.35503 17.6614Z" fill="#B7BAC1"/>
<path d="M3.43555 5.22999C5.43219 2.15229 8.31357 0 11.6184 0C13.5323 0 15.435 0.566465 17.4218 2.18874C19.5951 3.96245 21.9115 6.88311 24.8013 11.6967L25.8374 13.4241C28.3388 17.5913 29.762 19.7351 30.5949 20.7461C31.6661 22.0445 32.4162 22.4314 33.3907 22.4314C35.8627 22.4314 36.4796 20.16 36.4796 17.5604L40.3215 17.4398C40.3215 20.1572 39.7859 22.1538 38.8745 23.7312C37.9939 25.2568 36.2777 26.7809 33.3907 26.7809C31.596 26.7809 30.006 26.3911 28.2477 24.7324C26.896 23.4592 25.3158 21.1976 24.1002 19.1645L20.4841 13.124C18.6697 10.0926 17.0054 7.83236 16.0421 6.8088C15.006 5.70812 13.6739 4.37889 11.5483 4.37889C9.82787 4.37889 8.36685 5.58613 7.14419 7.43275L3.43555 5.22999Z" fill="#B7BAC1"/>
<path d="M11.5466 4.37889C9.82615 4.37889 8.36513 5.58613 7.14247 7.43275C5.41364 10.0421 4.35503 13.9289 4.35503 17.6614C4.35503 19.2009 4.69294 20.3829 5.13461 21.098L1.42176 23.5433C0.468313 21.9575 0 19.8767 0 17.5057C0 13.1941 1.1834 8.70028 3.43383 5.22999C5.43046 2.15229 8.31185 0 11.6167 0L11.5466 4.37889Z" fill="#B7BAC1"/>
<path d="M48.7852 0.846924H53.823L62.3887 16.3434L70.9557 0.846924H75.8842V26.3098H71.7745V6.79481L64.2619 20.3086H60.406L52.8948 6.79481V26.3098H48.7852V0.846924ZM88.7614 10.3408C85.8141 10.3408 84.039 12.559 83.6142 15.3058H93.617C93.4109 12.4763 91.7788 10.3408 88.7614 10.3408ZM79.5396 16.8706C79.5396 11.091 83.2748 6.88454 88.8329 6.88454C94.2998 6.88454 97.564 11.0377 97.564 17.1791V18.3078H83.6142C84.1091 21.2957 86.0917 23.3092 89.2886 23.3092C91.8391 23.3092 93.4333 22.531 94.9448 21.1079L97.1279 23.7817C95.071 25.6732 92.4546 26.7641 89.1428 26.7641C83.1262 26.7641 79.5396 22.3768 79.5396 16.8706ZM102.547 10.7054H98.7642V7.34024H102.547V1.77514H106.512V7.34024H112.26V10.7054H106.512V19.2346C106.512 22.1468 107.443 23.1816 109.732 23.1816C110.776 23.1816 111.375 23.0919 112.26 22.9447V26.2733C111.158 26.5846 110.106 26.7276 108.968 26.7276C104.687 26.7276 102.547 24.3889 102.547 19.7071V10.7054ZM128.956 13.978C128.16 11.9673 126.383 10.4866 123.773 10.4866C120.379 10.4866 118.208 12.8941 118.208 16.8159C118.208 20.6395 120.207 23.1634 123.61 23.1634C126.285 23.1634 128.195 21.607 128.956 19.6707V13.978ZM132.922 26.3098H129.029V23.6541C127.941 25.2175 125.961 26.7641 122.755 26.7641C117.598 26.7641 114.151 22.4469 114.151 16.8159C114.151 11.1316 117.68 6.88454 122.973 6.88454C125.59 6.88454 127.643 7.93054 129.029 9.77716V7.34024H132.922V26.3098Z" fill="#B7BAC1"/>
</svg>
