<svg width="227" height="56" viewBox="0 0 227 56" fill="none" xmlns="http://www.w3.org/2000/svg">
<g clip-path="url(#clip0_348_2753)">
<path d="M42.7266 22.6246H63.8143V11.874H42.7266V22.6246Z" fill="#B7BAC1"/>
<path d="M0.587891 11.874V22.6246H11.113V44.1258H21.638V22.6246H32.2007V11.874H0.587891Z" fill="#B7BAC1"/>
<path d="M32.2012 44.1259H63.8139V33.3753H42.7262V22.6248H32.2012V44.1259Z" fill="#B7BAC1"/>
<path d="M90.69 19.9934H75.2031V24.4665H80.3905V38.4874H85.5026V24.4665H90.69V19.9934Z" fill="#B7BAC1"/>
<path d="M96.5167 24.3164C92.8705 24.3164 90.1641 26.7597 90.1641 31.5711C90.1641 35.8188 92.457 38.7883 96.6295 38.7883C98.8097 38.7883 100.576 38.2245 102.268 37.2096L100.464 34.1648C99.0728 34.879 98.0955 35.1421 96.855 35.1421C95.577 35.1421 94.6748 34.4655 94.4869 32.9244H102.644C102.681 32.6988 102.681 32.3981 102.681 31.9846C102.719 26.8349 100.351 24.3164 96.5167 24.3164ZM94.562 29.9548C94.7124 28.564 95.3138 27.8498 96.4039 27.8498C97.7947 27.8498 98.2834 28.564 98.5089 29.9548H94.562Z" fill="#B7BAC1"/>
<path d="M111.739 34.9166C110.461 34.9166 109.785 33.7889 109.785 31.5711C109.785 29.391 110.386 28.1505 111.627 28.1505C112.642 28.1505 113.093 28.7144 113.769 29.9548L117.039 27.4739C115.837 25.5192 114.333 24.3164 111.702 24.3164C107.266 24.3164 105.086 27.2484 105.086 31.496C105.086 36.1571 107.529 38.7507 111.589 38.7507C114.032 38.7507 115.536 37.811 117.152 35.4429L114.145 33.0747C113.243 34.4279 112.642 34.9166 111.739 34.9166Z" fill="#B7BAC1"/>
<path d="M128.129 24.3163C126.475 24.3163 125.498 24.8801 124.633 25.5191V19.2417L119.859 21.1588V38.5251H124.633V30.5937C124.633 28.8646 125.235 28.3759 126.25 28.3759C127.227 28.3759 127.828 28.8646 127.828 30.6313V38.5251H132.602V30.0299C132.602 26.3837 131.136 24.3163 128.129 24.3163Z" fill="#B7BAC1"/>
<path d="M144.068 34.315C141.85 34.315 140.948 32.0596 140.948 29.2404C140.948 26.3084 141.887 24.1658 144.03 24.1658C145.722 24.1658 146.361 25.2559 147 26.985L151.661 25.1431C150.383 21.6473 148.578 19.6926 144.03 19.6926C139.068 19.6926 135.572 23.3012 135.572 29.2404C135.572 34.7284 138.504 38.7881 143.992 38.7881C148.39 38.7881 150.458 36.42 151.698 34.0142L147.375 31.7213C146.361 33.4504 145.684 34.315 144.068 34.315Z" fill="#B7BAC1"/>
<path d="M159.366 25.632V24.6171H154.592V38.4876H159.366V30.9321C159.366 29.2406 160.08 28.6768 161.245 28.6768C162.185 28.6768 162.862 29.1654 163.463 29.842L164.591 24.9178C164.027 24.5795 163.35 24.3164 162.335 24.3164C161.095 24.3164 160.155 24.8426 159.366 25.632Z" fill="#B7BAC1"/>
<path d="M174.777 32.5483C174.777 34.2774 174.176 34.7661 173.198 34.7661C172.221 34.7661 171.62 34.2774 171.62 32.5107V24.6169H166.846V33.1121C166.846 36.7583 168.312 38.7881 171.357 38.7881C172.973 38.7881 173.988 38.2243 174.815 37.5853V38.525H179.589V24.6545H174.815V32.5483" fill="#B7BAC1"/>
<path d="M191.28 24.3164C189.626 24.3164 188.648 24.8802 187.784 25.5193V24.5795H183.01V38.45H187.784V30.5186C187.784 28.7895 188.385 28.3009 189.4 28.3009C190.377 28.3009 190.979 28.7895 190.979 30.5562V38.45H195.753V29.9548C195.753 26.3838 194.324 24.3164 191.28 24.3164Z" fill="#B7BAC1"/>
<path d="M205.226 34.9166C203.948 34.9166 203.272 33.7889 203.272 31.5711C203.272 29.391 203.873 28.1505 205.076 28.1505C206.091 28.1505 206.542 28.7144 207.218 29.9548L210.489 27.4739C209.286 25.5192 207.782 24.3164 205.151 24.3164C200.715 24.3164 198.535 27.2484 198.535 31.496C198.535 36.1571 200.979 38.7507 205.038 38.7507C207.482 38.7507 208.985 37.811 210.602 35.4429L207.594 33.0747C206.767 34.4279 206.128 34.9166 205.226 34.9166Z" fill="#B7BAC1"/>
<path d="M221.614 24.3163C219.96 24.3163 218.982 24.8801 218.118 25.5191V19.2417L213.344 21.1588V38.5251H218.118V30.5937C218.118 28.8646 218.719 28.3759 219.734 28.3759C220.711 28.3759 221.313 28.8646 221.313 30.6313V38.5251H226.087V30.0299C226.124 26.3837 224.658 24.3163 221.614 24.3163Z" fill="#B7BAC1"/>
</g>
<defs>
<clipPath id="clip0_348_2753">
<rect width="226" height="56" fill="white" transform="translate(0.0878906)"/>
</clipPath>
</defs>
</svg>
