<svg width="161" height="45" viewBox="0 0 161 45" fill="none" xmlns="http://www.w3.org/2000/svg">
<g clip-path="url(#clip0_348_2714)">
<mask id="mask0_348_2714" style="mask-type:luminance" maskUnits="userSpaceOnUse" x="50" y="13" width="111" height="26">
<path d="M160.476 13.281H50.493V38.7963H160.476V13.281Z" fill="white"/>
</mask>
<g mask="url(#mask0_348_2714)">
<path fill-rule="evenodd" clip-rule="evenodd" d="M50.6212 13.407H51.3288H69.2457L67.5347 18.7871L62.703 18.7848L62.7143 37.5465L62.7133 38.6717H56.6827V38.2853V18.7848H51.3324L50.6255 18.7963L50.6212 13.407Z" fill="#B7BAC1"/>
<path fill-rule="evenodd" clip-rule="evenodd" d="M100.259 13.407H100.967H119.314L117.604 18.7871L112.341 18.7848L112.352 37.5465L112.35 38.6842H106.321C106.321 38.6842 106.321 38.4934 106.321 38.2853V18.7848H100.969L100.262 18.7963L100.259 13.407Z" fill="#B7BAC1"/>
<path fill-rule="evenodd" clip-rule="evenodd" d="M70.3807 21.9928V21.4436H76.3518L76.3543 21.9928L76.3636 37.0858L76.3451 38.671H70.4163V37.8117L70.3807 21.9928Z" fill="#B7BAC1"/>
<path fill-rule="evenodd" clip-rule="evenodd" d="M79.2234 14.5269V13.3359H80.4147H84.1332H85.1294V14.3708L85.1351 25.1033L91.0991 19.2468L98.2191 19.2479L90.7431 26.5729L99.1168 38.6709H92.5456L86.956 30.2822L85.1853 32.0179L85.1878 38.6839L79.2476 38.6709V38.1322L79.2234 14.5269Z" fill="#B7BAC1"/>
<path fill-rule="evenodd" clip-rule="evenodd" d="M140.503 14.5269V13.3359H141.694H145.413H146.409V14.3708L146.415 25.1033L152.379 19.2468L159.499 19.2479L152.022 26.5729L160.397 38.6709H153.824L148.236 30.2822L146.465 32.0179L146.468 38.6839L140.527 38.6709V38.1322L140.503 14.5269Z" fill="#B7BAC1"/>
<path fill-rule="evenodd" clip-rule="evenodd" d="M132.503 29.6964C132.384 30.1266 132.219 30.5255 132.005 30.8956C131.791 31.2669 131.534 31.6022 131.235 31.9051C130.935 32.207 130.601 32.4672 130.234 32.6821C129.867 32.8984 129.473 33.0637 129.051 33.1805C128.689 33.2811 128.313 33.3354 127.923 33.3505C127.945 33.3505 127.966 33.3505 127.986 33.3516C127.944 33.3527 127.903 33.3562 127.86 33.3562C127.838 33.3562 127.815 33.3541 127.792 33.3541C127.772 33.3541 127.753 33.3562 127.733 33.3562C127.455 33.3562 127.184 33.3318 126.918 33.289C126.743 33.2614 126.569 33.2265 126.399 33.1805C125.974 33.0637 125.577 32.8984 125.209 32.6821C124.842 32.4672 124.507 32.207 124.207 31.9051C123.908 31.6022 123.651 31.2669 123.437 30.8956C123.222 30.5255 123.055 30.1266 122.937 29.6964C122.818 29.2677 122.76 28.8203 122.759 28.3531C122.759 27.8859 122.817 27.436 122.936 27.0047C123.054 26.5735 123.22 26.1734 123.434 25.8046C123.648 25.4369 123.905 25.1016 124.204 24.7998C124.504 24.498 124.837 24.2401 125.205 24.0274C125.573 23.8135 125.969 23.6493 126.395 23.5314C126.569 23.484 126.747 23.4493 126.928 23.4204C127.188 23.3799 127.455 23.3568 127.729 23.3568C127.75 23.3568 127.774 23.3579 127.796 23.3591C127.816 23.3579 127.835 23.3568 127.855 23.3568C127.904 23.3568 127.952 23.3591 128 23.3602L127.949 23.3614C128.551 23.3868 129.121 23.5129 129.658 23.7418C130.261 23.9974 130.785 24.35 131.231 24.7998C131.677 25.2496 132.03 25.7769 132.289 26.3839C132.55 26.9911 132.679 27.6466 132.679 28.3531C132.679 28.8203 132.621 29.2677 132.503 29.6964ZM137.13 24.2958C136.594 23.047 135.867 21.9601 134.949 21.0339C134.03 20.1089 132.952 19.3828 131.713 18.8555C131.598 18.8069 131.484 18.7607 131.368 18.7168C131.326 18.7018 131.283 18.6867 131.241 18.6705C131.169 18.6439 131.098 18.6185 131.026 18.5942C130.971 18.5757 130.916 18.5584 130.861 18.541C130.805 18.5225 130.747 18.5051 130.69 18.489C130.625 18.4693 130.56 18.4485 130.493 18.4312C130.468 18.4242 130.443 18.4185 130.418 18.4115C130.131 18.3352 129.839 18.2716 129.544 18.2207C129.535 18.2184 129.524 18.2173 129.514 18.215C129.41 18.1976 129.306 18.1814 129.201 18.1664C128.974 18.1363 128.748 18.1109 128.518 18.0935C128.346 18.082 128.173 18.0739 128 18.0693C127.912 18.0658 127.826 18.0635 127.737 18.0635C127.655 18.0635 127.574 18.0658 127.493 18.0681C127.305 18.0727 127.118 18.0796 126.933 18.0935C126.534 18.1224 126.144 18.1768 125.759 18.2496C125.695 18.2612 125.631 18.2739 125.565 18.2866C125.507 18.2993 125.449 18.3121 125.391 18.3248C125.257 18.356 125.123 18.3884 124.992 18.4231C124.116 18.6647 123.299 19.0035 122.542 19.4429C121.785 19.8823 121.098 20.413 120.482 21.0339C119.864 21.656 119.337 22.3463 118.896 23.1036C118.455 23.8622 118.113 24.6854 117.871 25.5734C117.627 26.4626 117.505 27.3864 117.506 28.3484C117.506 29.3105 117.629 30.2319 117.874 31.1167C118.117 31.9989 118.46 32.8222 118.901 33.5852C119.342 34.3485 119.871 35.041 120.49 35.663C121.107 36.2851 121.794 36.8181 122.551 37.2622C123.309 37.7064 124.126 38.0485 125.002 38.289C125.144 38.3271 125.286 38.3619 125.429 38.3943C125.478 38.4058 125.528 38.4151 125.577 38.4252C125.672 38.446 125.768 38.4647 125.863 38.4819C125.921 38.4913 125.979 38.5028 126.037 38.5121C126.135 38.5272 126.233 38.5409 126.333 38.5549C126.382 38.5617 126.432 38.5689 126.483 38.5747C126.639 38.593 126.797 38.6081 126.955 38.6196C127.154 38.6347 127.354 38.6415 127.556 38.6462C127.62 38.6473 127.684 38.6498 127.748 38.6498C127.811 38.6498 127.874 38.6473 127.937 38.6462C128.139 38.6415 128.34 38.6347 128.54 38.6196C128.727 38.6056 128.914 38.5851 129.099 38.5617C129.218 38.5456 129.336 38.5294 129.453 38.5096C129.519 38.4981 129.584 38.4866 129.648 38.474C129.732 38.4589 129.815 38.4428 129.899 38.4241C129.95 38.4137 130.003 38.4022 130.054 38.3907C130.191 38.3594 130.328 38.326 130.462 38.289C131.328 38.0485 132.14 37.7064 132.897 37.2622C133.653 36.8181 134.34 36.2851 134.957 35.663C135.573 35.041 136.102 34.3485 136.542 33.5852C136.983 32.8222 137.324 31.9989 137.568 31.1167C137.811 30.2319 137.934 29.3105 137.933 28.3484C137.931 26.8962 137.663 25.5445 137.13 24.2958Z" fill="#B7BAC1"/>
<path fill-rule="evenodd" clip-rule="evenodd" d="M76.3761 16.438C76.3761 18.1123 75.0314 19.4697 73.3731 19.4697C71.7162 19.4697 70.3719 18.1123 70.3719 16.438C70.3719 14.7637 71.7162 13.4062 73.3731 13.4062C75.0314 13.4062 76.3761 14.7637 76.3761 16.438Z" fill="#B7BAC1"/>
</g>
<mask id="mask1_348_2714" style="mask-type:luminance" maskUnits="userSpaceOnUse" x="0" y="0" width="44" height="45">
<path d="M43.9942 0.703125H0.664978V44.451H43.9942V0.703125Z" fill="white"/>
</mask>
<g mask="url(#mask1_348_2714)">
<path d="M23.2847 0.740032C25.6475 0.703125 27.9967 0.725011 30.3433 0.703125C30.4855 3.49342 31.4794 6.33567 33.5023 8.30843C35.5212 10.3304 38.3767 11.256 41.1554 11.569V18.9091C38.5514 18.823 35.9355 18.2761 33.5727 17.1442C32.5436 16.6739 31.585 16.0682 30.6466 15.4489C30.6344 20.7752 30.6683 26.0947 30.6128 31.3991C30.472 33.9474 29.6392 36.4834 28.1714 38.5832C25.81 42.0792 21.7113 44.3583 17.5016 44.4291C14.9194 44.5782 12.34 43.8674 10.1397 42.5575C6.49321 40.3866 3.92732 36.4123 3.5536 32.1469C3.51027 31.2352 3.49538 30.3246 3.53194 29.4347C3.85691 25.9662 5.55623 22.6482 8.19389 20.3911C11.1836 17.7621 15.3717 16.5098 19.293 17.2508C19.3295 19.9509 19.2226 22.6482 19.2226 25.3483C17.4312 24.7632 15.3378 24.9272 13.7726 26.025C12.6297 26.7728 11.7618 27.9186 11.3096 29.2145C10.9358 30.1388 11.0428 31.1655 11.0645 32.1469C11.4937 35.1383 14.3426 37.6525 17.3838 37.3804C19.3999 37.3585 21.3322 36.1772 22.3829 34.448C22.7228 33.8421 23.1033 33.2229 23.1236 32.5106C23.3009 29.25 23.2305 26.0031 23.2522 22.7425C23.2671 15.3942 23.2305 8.06647 23.286 0.741398L23.2847 0.740032Z" fill="#B7BAC1"/>
</g>
</g>
<defs>
<clipPath id="clip0_348_2714">
<rect width="160.335" height="45" fill="white" transform="translate(0.664978 0.000244141)"/>
</clipPath>
</defs>
</svg>
